<svg xmlns="http://www.w3.org/2000/svg" width="390" height="390" viewBox="0 0 39 39"><rect width="39" height="39" fill="#FFFFFF"/><path fill="#4F46E5" d="M3.5 3L4 3L4 4L3 4L3 3.5Q3 3 3.5 3zM4 3L5 3L5 4L4 4L4 3zM5 3L6 3L6 4L5 4L5 3zM6 3L7 3L7 4L6 4L6 3zM7 3L8 3L8 4L7 4L7 3zM8 3L9 3L9 4L8 4L8 3zM9 3L9.5 3Q10 3 10 3.5L10 4L9 4L9 3zM11.5 3L12 3L12 4L11 4L11 3.5Q11 3 11.5 3zM12 3L13 3L13 4L12 4L12 3zM13 3L14 3L14 4L13 4L13 3zM14 3L14.5 3Q15 3 15 3.5L15 4L14 4L14 3zM19.5 3L19.5 3Q20 3 20 3.5L20 3.5Q20 4 19.5 4L19.5 4Q19 4 19 3.5L19 3.5Q19 3 19.5 3zM21.5 3L22 3L22 4L21.5 4Q21 4 21 3.5L21 3.5Q21 3 21.5 3zM22 3L23 3L23 4L22 4L22 3zM23 3L24 3L24 4L23 4L23 3zM24 3L24.5 3Q25 3 25 3.5L25 4L24 4L24 3zM26.5 3L26.5 3Q27 3 27 3.5L27 4L26 4L26 3.5Q26 3 26.5 3zM29.5 3L30 3L30 4L29 4L29 3.5Q29 3 29.5 3zM30 3L31 3L31 4L30 4L30 3zM31 3L32 3L32 4L31 4L31 3zM32 3L33 3L33 4L32 4L32 3zM33 3L34 3L34 4L33 4L33 3zM34 3L35 3L35 4L34 4L34 3zM35 3L35.5 3Q36 3 36 3.5L36 4L35 4L35 3zM3 4L4 4L4 5L3 5L3 4zM9 4L10 4L10 5L9 5L9 4zM11 4L12 4L12 5L11.5 5Q11 5 11 4.5L11 4zM12 4L13 4L13 5L12 5L12 4zM13 4L14 4L14 5L13 5L13 4zM14 4L15 4L15 5L14 5L14 4zM17.5 4L17.5 4Q18 4 18 4.5L18 5L17 5L17 4.5Q17 4 17.5 4zM20.5 4L20.5 4Q21 4 21 4.5L21 4.5Q21 5 20.5 5L20.5 5Q20 5 20 4.5L20 4.5Q20 4 20.5 4zM24 4L25 4L25 4.5Q25 5 24.5 5L24.5 5Q24 5 24 4.5L24 4zM26 4L27 4L27 5L26.5 5Q26 5 26 4.5L26 4zM27 4L27.5 4Q28 4 28 4.5L28 5L27 5L27 4zM29 4L30 4L30 5L29 5L29 4zM35 4L36 4L36 5L35 5L35 4zM3 5L4 5L4 6L3 6L3 5zM5.5 5L6 5L6 6L5 6L5 5.5Q5 5 5.5 5zM6 5L7 5L7 6L6 6L6 5zM7 5L7.5 5Q8 5 8 5.5L8 6L7 6L7 5zM9 5L10 5L10 6L9 6L9 5zM13 5L14 5L14 6L13.5 6Q13 6 13 5.5L13 5zM14 5L15 5L15 6L14 6L14 5zM15 5L16 5L16 6L15 6L15 5zM16 5L17 5L17 6L16 6L16 5zM17 5L18 5L18 5.5Q18 6 17.5 6L17 6L17 5zM21.5 5L22 5L22 6L21 6L21 5.5Q21 5 21.5 5zM22 5L22.5 5Q23 5 23 5.5L23 6L22 6L22 5zM25.5 5L25.5 5Q26 5 26 5.5L26 6L25 6L25 5.5Q25 5 25.5 5zM27 5L28 5L28 5.5Q28 6 27.5 6L27.5 6Q27 6 27 5.5L27 5zM29 5L30 5L30 6L29 6L29 5zM31.5 5L32 5L32 6L31 6L31 5.5Q31 5 31.5 5zM32 5L33 5L33 6L32 6L32 5zM33 5L33.5 5Q34 5 34 5.5L34 6L33 6L33 5zM35 5L36 5L36 6L35 6L35 5zM3 6L4 6L4 7L3 7L3 6zM5 6L6 6L6 7L5 7L5 6zM6 6L7 6L7 7L6 7L6 6zM7 6L8 6L8 7L7 7L7 6zM9 6L10 6L10 7L9 7L9 6zM11.5 6L11.5 6Q12 6 12 6.5L12 6.5Q12 7 11.5 7L11.5 7Q11 7 11 6.5L11 6.5Q11 6 11.5 6zM14 6L15 6L15 7L14 7L14 6zM15 6L16 6L16 6.5Q16 7 15.5 7L15 7L15 6zM18.5 6L18.5 6Q19 6 19 6.5L19 6.5Q19 7 18.5 7L18.5 7Q18 7 18 6.5L18 6.5Q18 6 18.5 6zM21 6L22 6L22 7L21 7L21 6zM22 6L23 6L23 6.5Q23 7 22.5 7L22 7L22 6zM25 6L26 6L26 6.5Q26 7 25.5 7L25.5 7Q25 7 25 6.5L25 6zM29 6L30 6L30 7L29 7L29 6zM31 6L32 6L32 7L31 7L31 6zM32 6L33 6L33 7L32 7L32 6zM33 6L34 6L34 7L33 7L33 6zM35 6L36 6L36 7L35 7L35 6zM3 7L4 7L4 8L3 8L3 7zM5 7L6 7L6 8L5.5 8Q5 8 5 7.5L5 7zM6 7L7 7L7 8L6 8L6 7zM7 7L8 7L8 7.5Q8 8 7.5 8L7 8L7 7zM9 7L10 7L10 8L9 8L9 7zM13.5 7L14 7L14 8L13 8L13 7.5Q13 7 13.5 7zM14 7L15 7L15 7.5Q15 8 14.5 8L14 8L14 7zM16.5 7L16.5 7Q17 7 17 7.5L17 7.5Q17 8 16.5 8L16.5 8Q16 8 16 7.5L16 7.5Q16 7 16.5 7zM19.5 7L19.5 7Q20 7 20 7.5L20 8L19 8L19 7.5Q19 7 19.5 7zM21 7L22 7L22 8L21 8L21 7zM27.5 7L27.5 7Q28 7 28 7.5L28 8L27 8L27 7.5Q27 7 27.5 7zM29 7L30 7L30 8L29 8L29 7zM31 7L32 7L32 8L31.5 8Q31 8 31 7.5L31 7zM32 7L33 7L33 8L32 8L32 7zM33 7L34 7L34 7.5Q34 8 33.5 8L33 8L33 7zM35 7L36 7L36 8L35 8L35 7zM3 8L4 8L4 9L3 9L3 8zM9 8L10 8L10 9L9 9L9 8zM13 8L14 8L14 9L13 9L13 8zM17.5 8L18 8L18 9L17 9L17 8.5Q17 8 17.5 8zM18 8L19 8L19 9L18 9L18 8zM19 8L20 8L20 9L19 9L19 8zM20 8L21 8L21 9L20 9L20 8zM21 8L22 8L22 9L21 9L21 8zM24.5 8L25 8L25 9L24.5 9Q24 9 24 8.5L24 8.5Q24 8 24.5 8zM25 8L25.5 8Q26 8 26 8.5L26 9L25 9L25 8zM27 8L28 8L28 9L27 9L27 8zM29 8L30 8L30 9L29 9L29 8zM35 8L36 8L36 9L35 9L35 8zM3 9L4 9L4 10L3.5 10Q3 10 3 9.5L3 9zM4 9L5 9L5 10L4 10L4 9zM5 9L6 9L6 10L5 10L5 9zM6 9L7 9L7 10L6 10L6 9zM7 9L8 9L8 10L7 10L7 9zM8 9L9 9L9 10L8 10L8 9zM9 9L10 9L10 9.5Q10 10 9.5 10L9 10L9 9zM11.5 9L11.5 9Q12 9 12 9.5L12 10L11 10L11 9.5Q11 9 11.5 9zM13 9L14 9L14 9.5Q14 10 13.5 10L13.5 10Q13 10 13 9.5L13 9zM15.5 9L15.5 9Q16 9 16 9.5L16 9.5Q16 10 15.5 10L15.5 10Q15 10 15 9.5L15 9.5Q15 9 15.5 9zM17 9L18 9L18 9.5Q18 10 17.5 10L17.5 10Q17 10 17 9.5L17 9zM19 9L20 9L20 10L19 10L19 9zM21 9L22 9L22 9.5Q22 10 21.5 10L21.5 10Q21 10 21 9.5L21 9zM23.5 9L23.5 9Q24 9 24 9.5L24 9.5Q24 10 23.5 10L23.5 10Q23 10 23 9.5L23 9.5Q23 9 23.5 9zM25 9L26 9L26 9.5Q26 10 25.5 10L25.5 10Q25 10 25 9.5L25 9zM27 9L28 9L28 10L27 10L27 9zM29 9L30 9L30 10L29.5 10Q29 10 29 9.5L29 9zM30 9L31 9L31 10L30 10L30 9zM31 9L32 9L32 10L31 10L31 9zM32 9L33 9L33 10L32 10L32 9zM33 9L34 9L34 10L33 10L33 9zM34 9L35 9L35 10L34 10L34 9zM35 9L36 9L36 9.5Q36 10 35.5 10L35 10L35 9zM11 10L12 10L12 11L11.5 11Q11 11 11 10.5L11 10zM12 10L12.5 10Q13 10 13 10.5L13 10.5Q13 11 12.5 11L12 11L12 10zM18.5 10L19 10L19 11L18 11L18 10.5Q18 10 18.5 10zM19 10L20 10L20 11L19 11L19 10zM20 10L20.5 10Q21 10 21 10.5L21 11L20 11L20 10zM22.5 10L22.5 10Q23 10 23 10.5L23 10.5Q23 11 22.5 11L22.5 11Q22 11 22 10.5L22 10.5Q22 10 22.5 10zM26.5 10L27 10L27 11L26.5 11Q26 11 26 10.5L26 10.5Q26 10 26.5 10zM27 10L28 10L28 11L27 11L27 10zM3.5 11L3.5 11Q4 11 4 11.5L4 12L3 12L3 11.5Q3 11 3.5 11zM5.5 11L6 11L6 12L5.5 12Q5 12 5 11.5L5 11.5Q5 11 5.5 11zM6 11L6.5 11Q7 11 7 11.5L7 12L6 12L6 11zM8.5 11L9 11L9 12L8.5 12Q8 12 8 11.5L8 11.5Q8 11 8.5 11zM9 11L10 11L10 12L9 12L9 11zM10 11L10.5 11Q11 11 11 11.5L11 12L10 12L10 11zM14.5 11L14.5 11Q15 11 15 11.5L15 12L14 12L14 11.5Q14 11 14.5 11zM17.5 11L18 11L18 12L17.5 12Q17 12 17 11.5L17 11.5Q17 11 17.5 11zM18 11L19 11L19 11.5Q19 12 18.5 12L18 12L18 11zM20 11L21 11L21 12L20 12L20 11zM21 11L21.5 11Q22 11 22 11.5L22 12L21 12L21 11zM24.5 11L25 11L25 12L24 12L24 11.5Q24 11 24.5 11zM25 11L25.5 11Q26 11 26 11.5L26 11.5Q26 12 25.5 12L25 12L25 11zM27 11L28 11L28 11.5Q28 12 27.5 12L27.5 12Q27 12 27 11.5L27 11zM29.5 11L30 11L30 12L29 12L29 11.5Q29 11 29.5 11zM30 11L30.5 11Q31 11 31 11.5L31 12L30 12L30 11zM32.5 11L33 11L33 12L32 12L32 11.5Q32 11 32.5 11zM33 11L33.5 11Q34 11 34 11.5L34 12L33 12L33 11zM35.5 11L35.5 11Q36 11 36 11.5L36 12L35 12L35 11.5Q35 11 35.5 11zM3 12L4 12L4 13L3.5 13Q3 13 3 12.5L3 12zM4 12L4.5 12Q5 12 5 12.5L5 13L4 13L4 12zM6 12L7 12L7 13L6 13L6 12zM7 12L7.5 12Q8 12 8 12.5L8 13L7 13L7 12zM10 12L11 12L11 13L10.5 13Q10 13 10 12.5L10 12zM11 12L11.5 12Q12 12 12 12.5L12 13L11 13L11 12zM13.5 12L14 12L14 13L13.5 13Q13 13 13 12.5L13 12.5Q13 12 13.5 12zM14 12L15 12L15 12.5Q15 13 14.5 13L14 13L14 12zM16.5 12L16.5 12Q17 12 17 12.5L17 13L16 13L16 12.5Q16 12 16.5 12zM19.5 12L20 12L20 13L19.5 13Q19 13 19 12.5L19 12.5Q19 12 19.5 12zM20 12L21 12L21 13L20 13L20 12zM21 12L22 12L22 13L21 13L21 12zM22 12L23 12L23 13L22 13L22 12zM23 12L24 12L24 13L23 13L23 12zM24 12L25 12L25 12.5Q25 13 24.5 13L24 13L24 12zM26.5 12L26.5 12Q27 12 27 12.5L27 13L26 13L26 12.5Q26 12 26.5 12zM29 12L30 12L30 13L29 13L29 12zM30 12L31 12L31 13L30 13L30 12zM32 12L33 12L33 13L32 13L32 12zM33 12L34 12L34 12.5Q34 13 33.5 13L33 13L33 12zM35 12L36 12L36 13L35 13L35 12zM4 13L5 13L5 14L4.5 14Q4 14 4 13.5L4 13zM5 13L6 13L6 14L5 14L5 13zM6 13L7 13L7 14L6 14L6 13zM7 13L8 13L8 14L7 14L7 13zM8 13L9 13L9 14L8 14L8 13zM9 13L9.5 13Q10 13 10 13.5L10 13.5Q10 14 9.5 14L9 14L9 13zM11 13L12 13L12 14L11 14L11 13zM15.5 13L16 13L16 14L15.5 14Q15 14 15 13.5L15 13.5Q15 13 15.5 13zM16 13L17 13L17 13.5Q17 14 16.5 14L16 14L16 13zM21 13L22 13L22 13.5Q22 14 21.5 14L21.5 14Q21 14 21 13.5L21 13zM23 13L24 13L24 14L23 14L23 13zM26 13L27 13L27 13.5Q27 14 26.5 14L26.5 14Q26 14 26 13.5L26 13zM29 13L30 13L30 14L29.5 14Q29 14 29 13.5L29 13zM30 13L31 13L31 14L30 14L30 13zM31 13L32 13L32 14L31 14L31 13zM32 13L33 13L33 14L32 14L32 13zM35 13L36 13L36 14L35 14L35 13zM8 14L9 14L9 15L8 15L8 14zM10.5 14L11 14L11 15L10 15L10 14.5Q10 14 10.5 14zM11 14L12 14L12 14.5Q12 15 11.5 15L11 15L11 14zM13.5 14L14 14L14 15L13.5 15Q13 15 13 14.5L13 14.5Q13 14 13.5 14zM14 14L14.5 14Q15 14 15 14.5L15 14.5Q15 15 14.5 15L14 15L14 14zM18.5 14L18.5 14Q19 14 19 14.5L19 14.5Q19 15 18.5 15L18.5 15Q18 15 18 14.5L18 14.5Q18 14 18.5 14zM20.5 14L20.5 14Q21 14 21 14.5L21 14.5Q21 15 20.5 15L20.5 15Q20 15 20 14.5L20 14.5Q20 14 20.5 14zM23 14L24 14L24 15L23 15L23 14zM30 14L31 14L31 14.5Q31 15 30.5 15L30.5 15Q30 15 30 14.5L30 14zM32 14L33 14L33 15L32 15L32 14zM35 14L36 14L36 15L35 15L35 14zM4.5 15L5 15L5 16L4 16L4 15.5Q4 15 4.5 15zM5 15L6 15L6 16L5 16L5 15zM6 15L7 15L7 16L6 16L6 15zM7 15L8 15L8 16L7 16L7 15zM8 15L9 15L9 16L8 16L8 15zM9 15L10 15L10 16L9 16L9 15zM10 15L11 15L11 16L10 16L10 15zM17.5 15L17.5 15Q18 15 18 15.5L18 16L17 16L17 15.5Q17 15 17.5 15zM19.5 15L19.5 15Q20 15 20 15.5L20 15.5Q20 16 19.5 16L19.5 16Q19 16 19 15.5L19 15.5Q19 15 19.5 15zM23 15L24 15L24 16L23 16L23 15zM25.5 15L26 15L26 16L25 16L25 15.5Q25 15 25.5 15zM26 15L27 15L27 16L26 16L26 15zM27 15L28 15L28 16L27 16L27 15zM28 15L28.5 15Q29 15 29 15.5L29 16L28 16L28 15zM32 15L33 15L33 15.5Q33 16 32.5 16L32.5 16Q32 16 32 15.5L32 15zM34.5 15L35 15L35 16L34 16L34 15.5Q34 15 34.5 15zM35 15L36 15L36 15.5Q36 16 35.5 16L35 16L35 15zM4 16L5 16L5 17L4 17L4 16zM7 16L8 16L8 16.5Q8 17 7.5 17L7.5 17Q7 17 7 16.5L7 16zM10 16L11 16L11 17L10 17L10 16zM11 16L12 16L12 17L11 17L11 16zM12 16L12.5 16Q13 16 13 16.5L13 17L12 17L12 16zM14.5 16L15 16L15 17L14.5 17Q14 17 14 16.5L14 16.5Q14 16 14.5 16zM15 16L16 16L16 17L15 17L15 16zM16 16L17 16L17 17L16 17L16 16zM17 16L18 16L18 16.5Q18 17 17.5 17L17 17L17 16zM20.5 16L20.5 16Q21 16 21 16.5L21 16.5Q21 17 20.5 17L20.5 17Q20 17 20 16.5L20 16.5Q20 16 20.5 16zM23 16L24 16L24 17L23 17L23 16zM24 16L25 16L25 17L24 17L24 16zM25 16L26 16L26 16.5Q26 17 25.5 17L25 17L25 16zM27 16L28 16L28 17L27.5 17Q27 17 27 16.5L27 16zM28 16L29 16L29 17L28 17L28 16zM29 16L30 16L30 17L29 17L29 16zM30 16L30.5 16Q31 16 31 16.5L31 16.5Q31 17 30.5 17L30 17L30 16zM33.5 16L34 16L34 17L33 17L33 16.5Q33 16 33.5 16zM34 16L35 16L35 16.5Q35 17 34.5 17L34 17L34 16zM4 17L5 17L5 18L4.5 18Q4 18 4 17.5L4 17zM5 17L6 17L6 18L5 18L5 17zM6 17L6.5 17Q7 17 7 17.5L7 18L6 18L6 17zM9.5 17L10 17L10 18L9.5 18Q9 18 9 17.5L9 17.5Q9 17 9.5 17zM10 17L11 17L11 17.5Q11 18 10.5 18L10 18L10 17zM12 17L13 17L13 18L12 18L12 17zM13 17L13.5 17Q14 17 14 17.5L14 17.5Q14 18 13.5 18L13 18L13 17zM15 17L16 17L16 18L15 18L15 17zM16 17L17 17L17 17.5Q17 18 16.5 18L16 18L16 17zM21.5 17L22 17L22 18L21.5 18Q21 18 21 17.5L21 17.5Q21 17 21.5 17zM22 17L23 17L23 18L22 18L22 17zM23 17L24 17L24 18L23 18L23 17zM24 17L25 17L25 18L24 18L24 17zM29 17L30 17L30 18L29 18L29 17zM31.5 17L32 17L32 18L31.5 18Q31 18 31 17.5L31 17.5Q31 17 31.5 17zM32 17L33 17L33 18L32 18L32 17zM33 17L34 17L34 18L33 18L33 17zM5 18L6 18L6 19L5.5 19Q5 19 5 18.5L5 18zM6 18L7 18L7 19L6 19L6 18zM8.5 18L8.5 18Q9 18 9 18.5L9 18.5Q9 19 8.5 19L8.5 19Q8 19 8 18.5L8 18.5Q8 18 8.5 18zM12 18L13 18L13 19L12 19L12 18zM15 18L16 18L16 19L15 19L15 18zM18.5 18L18.5 18Q19 18 19 18.5L19 18.5Q19 19 18.5 19L18.5 19Q18 19 18 18.5L18 18.5Q18 18 18.5 18zM24 18L25 18L25 19L24 19L24 18zM26.5 18L26.5 18Q27 18 27 18.5L27 18.5Q27 19 26.5 19L26.5 19Q26 19 26 18.5L26 18.5Q26 18 26.5 18zM28.5 18L29 18L29 19L28 19L28 18.5Q28 18 28.5 18zM29 18L30 18L30 19L29 19L29 18zM32 18L33 18L33 19L32 19L32 18zM33 18L34 18L34 18.5Q34 19 33.5 19L33 19L33 18zM4.5 19L4.5 19Q5 19 5 19.5L5 20L4 20L4 19.5Q4 19 4.5 19zM6 19L7 19L7 20L6 20L6 19zM7 19L7.5 19Q8 19 8 19.5L8 19.5Q8 20 7.5 20L7 20L7 19zM9.5 19L9.5 19Q10 19 10 19.5L10 19.5Q10 20 9.5 20L9.5 20Q9 20 9 19.5L9 19.5Q9 19 9.5 19zM12 19L13 19L13 20L12.5 20Q12 20 12 19.5L12 19zM13 19L14 19L14 20L13 20L13 19zM14 19L15 19L15 20L14 20L14 19zM15 19L16 19L16 19.5Q16 20 15.5 20L15 20L15 19zM21.5 19L21.5 19Q22 19 22 19.5L22 19.5Q22 20 21.5 20L21.5 20Q21 20 21 19.5L21 19.5Q21 19 21.5 19zM23.5 19L24 19L24 20L23 20L23 19.5Q23 19 23.5 19zM24 19L25 19L25 20L24 20L24 19zM25 19L25.5 19Q26 19 26 19.5L26 20L25 20L25 19zM28 19L29 19L29 20L28 20L28 19zM29 19L30 19L30 20L29 20L29 19zM31.5 19L32 19L32 20L31 20L31 19.5Q31 19 31.5 19zM32 19L33 19L33 20L32 20L32 19zM3.5 20L4 20L4 21L3.5 21Q3 21 3 20.5L3 20.5Q3 20 3.5 20zM4 20L5 20L5 21L4 21L4 20zM5 20L6 20L6 21L5 21L5 20zM6 20L7 20L7 20.5Q7 21 6.5 21L6 21L6 20zM10.5 20L11 20L11 21L10.5 21Q10 21 10 20.5L10 20.5Q10 20 10.5 20zM11 20L11.5 20Q12 20 12 20.5L12 21L11 21L11 20zM18.5 20L18.5 20Q19 20 19 20.5L19 21L18 21L18 20.5Q18 20 18.5 20zM22.5 20L23 20L23 21L22.5 21Q22 21 22 20.5L22 20.5Q22 20 22.5 20zM23 20L24 20L24 21L23 21L23 20zM25 20L26 20L26 21L25 21L25 20zM26 20L27 20L27 21L26 21L26 20zM27 20L28 20L28 21L27 21L27 20zM28 20L29 20L29 21L28 21L28 20zM29 20L30 20L30 20.5Q30 21 29.5 21L29 21L29 20zM31 20L32 20L32 21L31 21L31 20zM32 20L33 20L33 20.5Q33 21 32.5 21L32 21L32 20zM34.5 20L35 20L35 21L34 21L34 20.5Q34 20 34.5 20zM35 20L35.5 20Q36 20 36 20.5L36 20.5Q36 21 35.5 21L35 21L35 20zM4 21L5 21L5 22L4.5 22Q4 22 4 21.5L4 21zM5 21L6 21L6 22L5 22L5 21zM7.5 21L8 21L8 22L7.5 22Q7 22 7 21.5L7 21.5Q7 21 7.5 21zM8 21L9 21L9 22L8 22L8 21zM9 21L9.5 21Q10 21 10 21.5L10 21.5Q10 22 9.5 22L9 22L9 21zM11 21L12 21L12 22L11 22L11 21zM12 21L13 21L13 22L12 22L12 21zM13 21L14 21L14 22L13 22L13 21zM14 21L14.5 21Q15 21 15 21.5L15 22L14 22L14 21zM18 21L19 21L19 22L18.5 22Q18 22 18 21.5L18 21zM19 21L19.5 21Q20 21 20 21.5L20 21.5Q20 22 19.5 22L19 22L19 21zM21.5 21L21.5 21Q22 21 22 21.5L22 22L21 22L21 21.5Q21 21 21.5 21zM23 21L24 21L24 22L23.5 22Q23 22 23 21.5L23 21zM24 21L25 21L25 22L24 22L24 21zM25 21L26 21L26 21.5Q26 22 25.5 22L25 22L25 21zM27 21L28 21L28 22L27 22L27 21zM30.5 21L31 21L31 22L30.5 22Q30 22 30 21.5L30 21.5Q30 21 30.5 21zM31 21L32 21L32 22L31 22L31 21zM33.5 21L34 21L34 22L33.5 22Q33 22 33 21.5L33 21.5Q33 21 33.5 21zM34 21L35 21L35 22L34 22L34 21zM5 22L6 22L6 23L5.5 23Q5 23 5 22.5L5 22zM6 22L6.5 22Q7 22 7 22.5L7 23L6 23L6 22zM8 22L9 22L9 23L8 23L8 22zM10.5 22L11 22L11 23L10.5 23Q10 23 10 22.5L10 22.5Q10 22 10.5 22zM11 22L12 22L12 23L11 23L11 22zM12 22L13 22L13 23L12 23L12 22zM13 22L14 22L14 23L13 23L13 22zM14 22L15 22L15 22.5Q15 23 14.5 23L14 23L14 22zM17.5 22L17.5 22Q18 22 18 22.5L18 23L17 23L17 22.5Q17 22 17.5 22zM20.5 22L21 22L21 23L20.5 23Q20 23 20 22.5L20 22.5Q20 22 20.5 22zM21 22L22 22L22 23L21 23L21 22zM22 22L22.5 22Q23 22 23 22.5L23 22.5Q23 23 22.5 23L22 23L22 22zM26.5 22L27 22L27 23L26.5 23Q26 23 26 22.5L26 22.5Q26 22 26.5 22zM27 22L28 22L28 22.5Q28 23 27.5 23L27 23L27 22zM31 22L32 22L32 22.5Q32 23 31.5 23L31.5 23Q31 23 31 22.5L31 22zM34 22L35 22L35 23L34 23L34 22zM35 22L35.5 22Q36 22 36 22.5L36 23L35 23L35 22zM4.5 23L4.5 23Q5 23 5 23.5L5 24L4 24L4 23.5Q4 23 4.5 23zM6 23L7 23L7 24L6.5 24Q6 24 6 23.5L6 23zM7 23L8 23L8 24L7 24L7 23zM8 23L9 23L9 24L8 24L8 23zM9 23L9.5 23Q10 23 10 23.5L10 23.5Q10 24 9.5 24L9 24L9 23zM11 23L12 23L12 24L11 24L11 23zM12 23L13 23L13 24L12 24L12 23zM15.5 23L16 23L16 24L15.5 24Q15 24 15 23.5L15 23.5Q15 23 15.5 23zM16 23L17 23L17 24L16 24L16 23zM17 23L18 23L18 24L17 24L17 23zM19.5 23L19.5 23Q20 23 20 23.5L20 24L19 24L19 23.5Q19 23 19.5 23zM24.5 23L24.5 23Q25 23 25 23.5L25 24L24 24L24 23.5Q24 23 24.5 23zM30.5 23L30.5 23Q31 23 31 23.5L31 23.5Q31 24 30.5 24L30.5 24Q30 24 30 23.5L30 23.5Q30 23 30.5 23zM32.5 23L33 23L33 24L32 24L32 23.5Q32 23 32.5 23zM33 23L34 23L34 24L33 24L33 23zM34 23L35 23L35 24L34 24L34 23zM35 23L36 23L36 24L35 24L35 23zM3.5 24L4 24L4 25L3.5 25Q3 25 3 24.5L3 24.5Q3 24 3.5 24zM4 24L5 24L5 24.5Q5 25 4.5 25L4 25L4 24zM7 24L8 24L8 25L7 25L7 24zM11 24L12 24L12 25L11.5 25Q11 25 11 24.5L11 24zM12 24L13 24L13 25L12 25L12 24zM13 24L13.5 24Q14 24 14 24.5L14 24.5Q14 25 13.5 25L13 25L13 24zM17 24L18 24L18 25L17 25L17 24zM18 24L19 24L19 25L18 25L18 24zM19 24L20 24L20 25L19 25L19 24zM20 24L20.5 24Q21 24 21 24.5L21 25L20 25L20 24zM23.5 24L24 24L24 25L23 25L23 24.5Q23 24 23.5 24zM24 24L25 24L25 25L24 25L24 24zM26.5 24L26.5 24Q27 24 27 24.5L27 25L26 25L26 24.5Q26 24 26.5 24zM32 24L33 24L33 25L32 25L32 24zM33 24L34 24L34 25L33 25L33 24zM35 24L36 24L36 25L35 25L35 24zM6.5 25L7 25L7 26L6.5 26Q6 26 6 25.5L6 25.5Q6 25 6.5 25zM7 25L8 25L8 26L7 26L7 25zM8 25L9 25L9 26L8 26L8 25zM9 25L10 25L10 26L9 26L9 25zM10 25L10.5 25Q11 25 11 25.5L11 25.5Q11 26 10.5 26L10 26L10 25zM12 25L13 25L13 26L12 26L12 25zM15.5 25L15.5 25Q16 25 16 25.5L16 25.5Q16 26 15.5 26L15.5 26Q15 26 15 25.5L15 25.5Q15 25 15.5 25zM17 25L18 25L18 26L17.5 26Q17 26 17 25.5L17 25zM18 25L19 25L19 26L18 26L18 25zM20 25L21 25L21 25.5Q21 26 20.5 26L20.5 26Q20 26 20 25.5L20 25zM22.5 25L23 25L23 26L22.5 26Q22 26 22 25.5L22 25.5Q22 25 22.5 25zM23 25L24 25L24 26L23 26L23 25zM24 25L25 25L25 25.5Q25 26 24.5 26L24 26L24 25zM26 25L27 25L27 26L26.5 26Q26 26 26 25.5L26 25zM27 25L28 25L28 26L27 26L27 25zM28 25L29 25L29 26L28 26L28 25zM29 25L30 25L30 26L29 26L29 25zM30 25L31 25L31 26L30 26L30 25zM31 25L32 25L32 26L31 26L31 25zM32 25L33 25L33 26L32 26L32 25zM33 25L34 25L34 26L33 26L33 25zM34 25L35 25L35 26L34 26L34 25zM35 25L36 25L36 25.5Q36 26 35.5 26L35 26L35 25zM4.5 26L4.5 26Q5 26 5 26.5L5 26.5Q5 27 4.5 27L4.5 27Q4 27 4 26.5L4 26.5Q4 26 4.5 26zM7 26L8 26L8 27L7.5 27Q7 27 7 26.5L7 26zM8 26L9 26L9 27L8 27L8 26zM12 26L13 26L13 27L12 27L12 26zM16.5 26L16.5 26Q17 26 17 26.5L17 26.5Q17 27 16.5 27L16.5 27Q16 27 16 26.5L16 26.5Q16 26 16.5 26zM18 26L19 26L19 26.5Q19 27 18.5 27L18.5 27Q18 27 18 26.5L18 26zM21.5 26L21.5 26Q22 26 22 26.5L22 26.5Q22 27 21.5 27L21.5 27Q21 27 21 26.5L21 26.5Q21 26 21.5 26zM23 26L24 26L24 26.5Q24 27 23.5 27L23.5 27Q23 27 23 26.5L23 26zM27 26L28 26L28 27L27 27L27 26zM29 26L30 26L30 27L29 27L29 26zM31 26L32 26L32 27L31 27L31 26zM32 26L33 26L33 26.5Q33 27 32.5 27L32 27L32 26zM3.5 27L3.5 27Q4 27 4 27.5L4 27.5Q4 28 3.5 28L3.5 28Q3 28 3 27.5L3 27.5Q3 27 3.5 27zM6.5 27L6.5 27Q7 27 7 27.5L7 27.5Q7 28 6.5 28L6.5 28Q6 28 6 27.5L6 27.5Q6 27 6.5 27zM8 27L9 27L9 28L8.5 28Q8 28 8 27.5L8 27zM9 27L10 27L10 28L9 28L9 27zM10 27L10.5 27Q11 27 11 27.5L11 27.5Q11 28 10.5 28L10 28L10 27zM12 27L13 27L13 28L12 28L12 27zM13 27L13.5 27Q14 27 14 27.5L14 27.5Q14 28 13.5 28L13 28L13 27zM15.5 27L15.5 27Q16 27 16 27.5L16 27.5Q16 28 15.5 28L15.5 28Q15 28 15 27.5L15 27.5Q15 27 15.5 27zM20.5 27L20.5 27Q21 27 21 27.5L21 27.5Q21 28 20.5 28L20.5 28Q20 28 20 27.5L20 27.5Q20 27 20.5 27zM22.5 27L22.5 27Q23 27 23 27.5L23 28L22 28L22 27.5Q22 27 22.5 27zM25.5 27L25.5 27Q26 27 26 27.5L26 27.5Q26 28 25.5 28L25.5 28Q25 28 25 27.5L25 27.5Q25 27 25.5 27zM27 27L28 27L28 28L27 28L27 27zM28 27L29 27L29 28L28 28L28 27zM29 27L30 27L30 28L29 28L29 27zM30 27L31 27L31 28L30 28L30 27zM31 27L32 27L32 28L31 28L31 27zM11.5 28L12 28L12 29L11 29L11 28.5Q11 28 11.5 28zM12 28L13 28L13 29L12 29L12 28zM14.5 28L14.5 28Q15 28 15 28.5L15 28.5Q15 29 14.5 29L14.5 29Q14 29 14 28.5L14 28.5Q14 28 14.5 28zM17.5 28L17.5 28Q18 28 18 28.5L18 28.5Q18 29 17.5 29L17.5 29Q17 29 17 28.5L17 28.5Q17 28 17.5 28zM19.5 28L19.5 28Q20 28 20 28.5L20 28.5Q20 29 19.5 29L19.5 29Q19 29 19 28.5L19 28.5Q19 28 19.5 28zM22 28L23 28L23 29L22 29L22 28zM23 28L24 28L24 29L23 29L23 28zM24 28L24.5 28Q25 28 25 28.5L25 29L24 29L24 28zM27 28L28 28L28 29L27 29L27 28zM31 28L32 28L32 29L31 29L31 28zM32 28L32.5 28Q33 28 33 28.5L33 28.5Q33 29 32.5 29L32 29L32 28zM3.5 29L4 29L4 30L3 30L3 29.5Q3 29 3.5 29zM4 29L5 29L5 30L4 30L4 29zM5 29L6 29L6 30L5 30L5 29zM6 29L7 29L7 30L6 30L6 29zM7 29L8 29L8 30L7 30L7 29zM8 29L9 29L9 30L8 30L8 29zM9 29L9.5 29Q10 29 10 29.5L10 30L9 30L9 29zM11 29L12 29L12 30L11.5 30Q11 30 11 29.5L11 29zM12 29L13 29L13 29.5Q13 30 12.5 30L12 30L12 29zM20.5 29L21 29L21 30L20 30L20 29.5Q20 29 20.5 29zM21 29L22 29L22 30L21 30L21 29zM22 29L23 29L23 30L22 30L22 29zM23 29L24 29L24 30L23 30L23 29zM24 29L25 29L25 30L24 30L24 29zM26.5 29L27 29L27 30L26 30L26 29.5Q26 29 26.5 29zM27 29L28 29L28 30L27 30L27 29zM29.5 29L29.5 29Q30 29 30 29.5L30 29.5Q30 30 29.5 30L29.5 30Q29 30 29 29.5L29 29.5Q29 29 29.5 29zM31 29L32 29L32 30L31 30L31 29zM3 30L4 30L4 31L3 31L3 30zM9 30L10 30L10 31L9 31L9 30zM13.5 30L13.5 30Q14 30 14 30.5L14 30.5Q14 31 13.5 31L13.5 31Q13 31 13 30.5L13 30.5Q13 30 13.5 30zM15.5 30L15.5 30Q16 30 16 30.5L16 30.5Q16 31 15.5 31L15.5 31Q15 31 15 30.5L15 30.5Q15 30 15.5 30zM17.5 30L17.5 30Q18 30 18 30.5L18 31L17 31L17 30.5Q17 30 17.5 30zM20 30L21 30L21 31L20 31L20 30zM21 30L22 30L22 31L21 31L21 30zM23 30L24 30L24 31L23 31L23 30zM24 30L25 30L25 31L24 31L24 30zM25 30L26 30L26 31L25 31L25 30zM26 30L27 30L27 31L26 31L26 30zM27 30L28 30L28 31L27 31L27 30zM31 30L32 30L32 31L31 31L31 30zM32 30L33 30L33 31L32 31L32 30zM33 30L33.5 30Q34 30 34 30.5L34 31L33 31L33 30zM35.5 30L35.5 30Q36 30 36 30.5L36 30.5Q36 31 35.5 31L35.5 31Q35 31 35 30.5L35 30.5Q35 30 35.5 30zM3 31L4 31L4 32L3 32L3 31zM5.5 31L6 31L6 32L5 32L5 31.5Q5 31 5.5 31zM6 31L7 31L7 32L6 32L6 31zM7 31L7.5 31Q8 31 8 31.5L8 32L7 32L7 31zM9 31L10 31L10 32L9 32L9 31zM16.5 31L17 31L17 32L16 32L16 31.5Q16 31 16.5 31zM17 31L18 31L18 32L17 32L17 31zM19.5 31L20 31L20 32L19 32L19 31.5Q19 31 19.5 31zM20 31L21 31L21 32L20 32L20 31zM21 31L22 31L22 32L21 32L21 31zM22 31L23 31L23 32L22 32L22 31zM23 31L24 31L24 32L23 32L23 31zM24 31L25 31L25 32L24 32L24 31zM25 31L26 31L26 32L25 32L25 31zM26 31L27 31L27 32L26 32L26 31zM27 31L28 31L28 32L27 32L27 31zM28 31L29 31L29 32L28 32L28 31zM29 31L30 31L30 32L29 32L29 31zM30 31L31 31L31 32L30 32L30 31zM31 31L32 31L32 31.5Q32 32 31.5 32L31 32L31 31zM33 31L34 31L34 32L33.5 32Q33 32 33 31.5L33 31zM34 31L34.5 31Q35 31 35 31.5L35 31.5Q35 32 34.5 32L34 32L34 31zM3 32L4 32L4 33L3 33L3 32zM5 32L6 32L6 33L5 33L5 32zM6 32L7 32L7 33L6 33L6 32zM7 32L8 32L8 33L7 33L7 32zM9 32L10 32L10 33L9 33L9 32zM11.5 32L11.5 32Q12 32 12 32.5L12 32.5Q12 33 11.5 33L11.5 33Q11 33 11 32.5L11 32.5Q11 32 11.5 32zM13.5 32L13.5 32Q14 32 14 32.5L14 32.5Q14 33 13.5 33L13.5 33Q13 33 13 32.5L13 32.5Q13 32 13.5 32zM15.5 32L16 32L16 33L15.5 33Q15 33 15 32.5L15 32.5Q15 32 15.5 32zM16 32L17 32L17 33L16 33L16 32zM17 32L18 32L18 33L17 33L17 32zM19 32L20 32L20 33L19 33L19 32zM22 32L23 32L23 32.5Q23 33 22.5 33L22.5 33Q22 33 22 32.5L22 32zM24 32L25 32L25 32.5Q25 33 24.5 33L24.5 33Q24 33 24 32.5L24 32zM26 32L27 32L27 32.5Q27 33 26.5 33L26.5 33Q26 33 26 32.5L26 32zM30 32L31 32L31 33L30 33L30 32zM35.5 32L35.5 32Q36 32 36 32.5L36 32.5Q36 33 35.5 33L35.5 33Q35 33 35 32.5L35 32.5Q35 32 35.5 32zM3 33L4 33L4 34L3 34L3 33zM5 33L6 33L6 34L5.5 34Q5 34 5 33.5L5 33zM6 33L7 33L7 34L6 34L6 33zM7 33L8 33L8 33.5Q8 34 7.5 34L7 34L7 33zM9 33L10 33L10 34L9 34L9 33zM12.5 33L12.5 33Q13 33 13 33.5L13 34L12 34L12 33.5Q12 33 12.5 33zM17 33L18 33L18 34L17.5 34Q17 34 17 33.5L17 33zM18 33L19 33L19 34L18 34L18 33zM19 33L20 33L20 33.5Q20 34 19.5 34L19 34L19 33zM21.5 33L21.5 33Q22 33 22 33.5L22 34L21 34L21 33.5Q21 33 21.5 33zM25.5 33L25.5 33Q26 33 26 33.5L26 34L25 34L25 33.5Q25 33 25.5 33zM29.5 33L30 33L30 34L29 34L29 33.5Q29 33 29.5 33zM30 33L31 33L31 34L30 34L30 33zM32.5 33L33 33L33 34L32.5 34Q32 34 32 33.5L32 33.5Q32 33 32.5 33zM33 33L33.5 33Q34 33 34 33.5L34 33.5Q34 34 33.5 34L33 34L33 33zM3 34L4 34L4 35L3 35L3 34zM9 34L10 34L10 35L9 35L9 34zM11.5 34L12 34L12 35L11 35L11 34.5Q11 34 11.5 34zM12 34L13 34L13 35L12 35L12 34zM13 34L13.5 34Q14 34 14 34.5L14 35L13 35L13 34zM16.5 34L16.5 34Q17 34 17 34.5L17 35L16 35L16 34.5Q16 34 16.5 34zM20.5 34L21 34L21 35L20 35L20 34.5Q20 34 20.5 34zM21 34L22 34L22 35L21 35L21 34zM22 34L23 34L23 35L22 35L22 34zM23 34L23.5 34Q24 34 24 34.5L24 34.5Q24 35 23.5 35L23 35L23 34zM25 34L26 34L26 35L25.5 35Q25 35 25 34.5L25 34zM26 34L27 34L27 35L26 35L26 34zM27 34L28 34L28 35L27 35L27 34zM28 34L29 34L29 35L28 35L28 34zM29 34L30 34L30 35L29 35L29 34zM30 34L31 34L31 35L30 35L30 34zM31 34L31.5 34Q32 34 32 34.5L32 35L31 35L31 34zM35.5 34L35.5 34Q36 34 36 34.5L36 34.5Q36 35 35.5 35L35.5 35Q35 35 35 34.5L35 34.5Q35 34 35.5 34zM3 35L4 35L4 36L3.5 36Q3 36 3 35.5L3 35zM4 35L5 35L5 36L4 36L4 35zM5 35L6 35L6 36L5 36L5 35zM6 35L7 35L7 36L6 36L6 35zM7 35L8 35L8 36L7 36L7 35zM8 35L9 35L9 36L8 36L8 35zM9 35L10 35L10 35.5Q10 36 9.5 36L9 36L9 35zM11 35L12 35L12 35.5Q12 36 11.5 36L11.5 36Q11 36 11 35.5L11 35zM13 35L14 35L14 35.5Q14 36 13.5 36L13.5 36Q13 36 13 35.5L13 35zM15.5 35L16 35L16 36L15.5 36Q15 36 15 35.5L15 35.5Q15 35 15.5 35zM16 35L17 35L17 35.5Q17 36 16.5 36L16 36L16 35zM20 35L21 35L21 36L20.5 36Q20 36 20 35.5L20 35zM21 35L22 35L22 36L21 36L21 35zM22 35L23 35L23 35.5Q23 36 22.5 36L22 36L22 35zM24.5 35L24.5 35Q25 35 25 35.5L25 35.5Q25 36 24.5 36L24.5 36Q24 36 24 35.5L24 35.5Q24 35 24.5 35zM26 35L27 35L27 35.5Q27 36 26.5 36L26.5 36Q26 36 26 35.5L26 35zM29 35L30 35L30 35.5Q30 36 29.5 36L29.5 36Q29 36 29 35.5L29 35zM31 35L32 35L32 36L31.5 36Q31 36 31 35.5L31 35zM32 35L33 35L33 36L32 36L32 35zM33 35L33.5 35Q34 35 34 35.5L34 35.5Q34 36 33.5 36L33 36L33 35z"/></svg>