<svg xmlns="http://www.w3.org/2000/svg" width="390" height="390" viewBox="0 0 39 39"><rect width="39" height="39" fill="#FFFFFF"/><path fill="#000000" shape-rendering="crispEdges" d="M3 3h7v1h-7zM11 3h4v1h-4zM19 3h1v1h-1zM21 3h4v1h-4zM26 3h1v1h-1zM29 3h7v1h-7zM3 4h1v1h-1zM9 4h1v1h-1zM11 4h4v1h-4zM17 4h1v1h-1zM20 4h1v1h-1zM24 4h1v1h-1zM26 4h2v1h-2zM29 4h1v1h-1zM35 4h1v1h-1zM3 5h1v1h-1zM5 5h3v1h-3zM9 5h1v1h-1zM13 5h5v1h-5zM21 5h2v1h-2zM25 5h1v1h-1zM27 5h1v1h-1zM29 5h1v1h-1zM31 5h3v1h-3zM35 5h1v1h-1zM3 6h1v1h-1zM5 6h3v1h-3zM9 6h1v1h-1zM11 6h1v1h-1zM14 6h2v1h-2zM18 6h1v1h-1zM21 6h2v1h-2zM25 6h1v1h-1zM29 6h1v1h-1zM31 6h3v1h-3zM35 6h1v1h-1zM3 7h1v1h-1zM5 7h3v1h-3zM9 7h1v1h-1zM13 7h2v1h-2zM16 7h1v1h-1zM19 7h1v1h-1zM21 7h1v1h-1zM27 7h1v1h-1zM29 7h1v1h-1zM31 7h3v1h-3zM35 7h1v1h-1zM3 8h1v1h-1zM9 8h1v1h-1zM13 8h1v1h-1zM17 8h5v1h-5zM24 8h2v1h-2zM27 8h1v1h-1zM29 8h1v1h-1zM35 8h1v1h-1zM3 9h7v1h-7zM11 9h1v1h-1zM13 9h1v1h-1zM15 9h1v1h-1zM17 9h1v1h-1zM19 9h1v1h-1zM21 9h1v1h-1zM23 9h1v1h-1zM25 9h1v1h-1zM27 9h1v1h-1zM29 9h7v1h-7zM11 10h2v1h-2zM18 10h3v1h-3zM22 10h1v1h-1zM26 10h2v1h-2zM3 11h1v1h-1zM5 11h2v1h-2zM8 11h3v1h-3zM14 11h1v1h-1zM17 11h2v1h-2zM20 11h2v1h-2zM24 11h2v1h-2zM27 11h1v1h-1zM29 11h2v1h-2zM32 11h2v1h-2zM35 11h1v1h-1zM3 12h2v1h-2zM6 12h2v1h-2zM10 12h2v1h-2zM13 12h2v1h-2zM16 12h1v1h-1zM19 12h6v1h-6zM26 12h1v1h-1zM29 12h2v1h-2zM32 12h2v1h-2zM35 12h1v1h-1zM4 13h6v1h-6zM11 13h1v1h-1zM15 13h2v1h-2zM21 13h1v1h-1zM23 13h1v1h-1zM26 13h1v1h-1zM29 13h4v1h-4zM35 13h1v1h-1zM8 14h1v1h-1zM10 14h2v1h-2zM13 14h2v1h-2zM18 14h1v1h-1zM20 14h1v1h-1zM23 14h1v1h-1zM30 14h1v1h-1zM32 14h1v1h-1zM35 14h1v1h-1zM4 15h7v1h-7zM17 15h1v1h-1zM19 15h1v1h-1zM23 15h1v1h-1zM25 15h4v1h-4zM32 15h1v1h-1zM34 15h2v1h-2zM4 16h1v1h-1zM7 16h1v1h-1zM10 16h3v1h-3zM14 16h4v1h-4zM20 16h1v1h-1zM23 16h3v1h-3zM27 16h4v1h-4zM33 16h2v1h-2zM4 17h3v1h-3zM9 17h2v1h-2zM12 17h2v1h-2zM15 17h2v1h-2zM21 17h4v1h-4zM29 17h1v1h-1zM31 17h3v1h-3zM5 18h2v1h-2zM8 18h1v1h-1zM12 18h1v1h-1zM15 18h1v1h-1zM18 18h1v1h-1zM24 18h1v1h-1zM26 18h1v1h-1zM28 18h2v1h-2zM32 18h2v1h-2zM4 19h1v1h-1zM6 19h2v1h-2zM9 19h1v1h-1zM12 19h4v1h-4zM21 19h1v1h-1zM23 19h3v1h-3zM28 19h2v1h-2zM31 19h2v1h-2zM3 20h4v1h-4zM10 20h2v1h-2zM18 20h1v1h-1zM22 20h2v1h-2zM25 20h5v1h-5zM31 20h2v1h-2zM34 20h2v1h-2zM4 21h2v1h-2zM7 21h3v1h-3zM11 21h4v1h-4zM18 21h2v1h-2zM21 21h1v1h-1zM23 21h3v1h-3zM27 21h1v1h-1zM30 21h2v1h-2zM33 21h2v1h-2zM5 22h2v1h-2zM8 22h1v1h-1zM10 22h5v1h-5zM17 22h1v1h-1zM20 22h3v1h-3zM26 22h2v1h-2zM31 22h1v1h-1zM34 22h2v1h-2zM4 23h1v1h-1zM6 23h4v1h-4zM11 23h2v1h-2zM15 23h3v1h-3zM19 23h1v1h-1zM24 23h1v1h-1zM30 23h1v1h-1zM32 23h4v1h-4zM3 24h2v1h-2zM7 24h1v1h-1zM11 24h3v1h-3zM17 24h4v1h-4zM23 24h2v1h-2zM26 24h1v1h-1zM32 24h2v1h-2zM35 24h1v1h-1zM6 25h5v1h-5zM12 25h1v1h-1zM15 25h1v1h-1zM17 25h2v1h-2zM20 25h1v1h-1zM22 25h3v1h-3zM26 25h10v1h-10zM4 26h1v1h-1zM7 26h2v1h-2zM12 26h1v1h-1zM16 26h1v1h-1zM18 26h1v1h-1zM21 26h1v1h-1zM23 26h1v1h-1zM27 26h1v1h-1zM29 26h1v1h-1zM31 26h2v1h-2zM3 27h1v1h-1zM6 27h1v1h-1zM8 27h3v1h-3zM12 27h2v1h-2zM15 27h1v1h-1zM20 27h1v1h-1zM22 27h1v1h-1zM25 27h1v1h-1zM27 27h5v1h-5zM11 28h2v1h-2zM14 28h1v1h-1zM17 28h1v1h-1zM19 28h1v1h-1zM22 28h3v1h-3zM27 28h1v1h-1zM31 28h2v1h-2zM3 29h7v1h-7zM11 29h2v1h-2zM20 29h5v1h-5zM26 29h2v1h-2zM29 29h1v1h-1zM31 29h1v1h-1zM3 30h1v1h-1zM9 30h1v1h-1zM13 30h1v1h-1zM15 30h1v1h-1zM17 30h1v1h-1zM20 30h2v1h-2zM23 30h5v1h-5zM31 30h3v1h-3zM35 30h1v1h-1zM3 31h1v1h-1zM5 31h3v1h-3zM9 31h1v1h-1zM16 31h2v1h-2zM19 31h13v1h-13zM33 31h2v1h-2zM3 32h1v1h-1zM5 32h3v1h-3zM9 32h1v1h-1zM11 32h1v1h-1zM13 32h1v1h-1zM15 32h3v1h-3zM19 32h1v1h-1zM22 32h1v1h-1zM24 32h1v1h-1zM26 32h1v1h-1zM30 32h1v1h-1zM35 32h1v1h-1zM3 33h1v1h-1zM5 33h3v1h-3zM9 33h1v1h-1zM12 33h1v1h-1zM17 33h3v1h-3zM21 33h1v1h-1zM25 33h1v1h-1zM29 33h2v1h-2zM32 33h2v1h-2zM3 34h1v1h-1zM9 34h1v1h-1zM11 34h3v1h-3zM16 34h1v1h-1zM20 34h4v1h-4zM25 34h7v1h-7zM35 34h1v1h-1zM3 35h7v1h-7zM11 35h1v1h-1zM13 35h1v1h-1zM15 35h2v1h-2zM20 35h3v1h-3zM24 35h1v1h-1zM26 35h1v1h-1zM29 35h1v1h-1zM31 35h3v1h-3z"/></svg>